<?xml version="1.0" encoding="UTF-8"?>
<svg width="34px" height="34px" viewBox="0 0 34 34" version="1.1" xmlns="http://www.w3.org/2000/svg" xmlns:xlink="http://www.w3.org/1999/xlink">
    <title>bath_icon</title>
    <g id="Page-1" stroke="none" stroke-width="1" fill="none" fill-rule="evenodd">
        <g id="bath_icon" transform="translate(0.143472, 0.400000)">
            <rect id="Rectangle" fill="#474D56" x="0" y="0" width="33.3106169" height="33.3" rx="1.8"></rect>
            <path d="M25.445929,16.1004876 L10.8162661,16.1004876 L10.8162661,9.53541362 C10.8169212,9.23353976 10.9991822,8.96169925 11.2782572,8.84635847 C11.5573322,8.73101768 11.8784193,8.79482604 12.0921415,9.00809844 L12.514151,9.42995059 C11.9794791,10.4643697 12.1975299,11.7279605 13.0479931,12.523533 C12.8515889,12.7435158 12.8599006,13.0781711 13.0669835,13.28814 L13.4647275,13.6857356 C13.570254,13.7912469 13.7133932,13.8505245 13.8626473,13.8505245 C14.0119014,13.8505245 14.1550405,13.7912469 14.2605671,13.6857356 L17.9661622,9.98152226 C18.0717128,9.87603508 18.1310126,9.73294929 18.1310126,9.58375085 C18.1310126,9.4345524 18.0717128,9.29146662 17.9661622,9.18597943 L17.5684182,8.78838379 C17.3584976,8.5803447 17.0228092,8.57171681 16.802471,8.76869735 C16.0066018,7.91855127 14.7425396,7.70058186 13.7077346,8.23505439 L13.2857251,7.81320225 C12.5891269,7.11678242 11.5413993,6.90850754 10.6312557,7.28552758 C9.72111206,7.66254762 9.12786227,8.55058485 9.12822812,9.53541362 L9.12822812,16.1004876 L8.56554878,16.1004876 C8.25478956,16.1004876 8.00286944,16.3523138 8.00286944,16.6629571 L8.00286944,17.2254267 C8.00286944,17.53607 8.25478956,17.7878962 8.56554878,17.7878962 L9.12822812,17.7878962 L9.12822812,20.6002438 C9.13018658,21.5554768 9.53954253,22.4645475 10.2535868,23.0993662 L10.2535868,24.5375305 C10.2535868,24.8481738 10.5055069,25.1 10.8162661,25.1 L11.3789455,25.1 C11.6897047,25.1 11.9416248,24.8481738 11.9416248,24.5375305 L11.9416248,23.9184625 C12.127268,23.9530474 12.3154897,23.9719802 12.5043042,23.975061 L21.5071736,23.975061 C21.695988,23.9719802 21.8842098,23.9530474 22.0698529,23.9184625 L22.0698529,24.5375305 C22.0698529,24.8481738 22.3217731,25.1 22.6325323,25.1 L23.1952116,25.1 C23.5059708,25.1 23.757891,24.8481738 23.757891,24.5375305 L23.757891,23.0993662 C24.4719352,22.4645475 24.8812912,21.5554768 24.8832496,20.6002438 L24.8832496,17.7878962 L25.445929,17.7878962 C25.7566882,17.7878962 26.0086083,17.53607 26.0086083,17.2254267 L26.0086083,16.6629571 C26.0086083,16.3523138 25.7566882,16.1004876 25.445929,16.1004876 Z M14.2626771,11.3374254 C14.0541341,11.1616536 13.9110025,10.9120578 13.9110025,10.6164097 C13.9110025,10.0727839 14.3518627,9.63208807 14.8956914,9.63208807 C15.1932081,9.63208807 15.4436004,9.7755178 15.6194377,9.98609233 C15.2146602,10.3966951 14.7768253,10.8343667 14.2626771,11.3374254 Z M23.1952116,20.6002438 C23.1942424,21.5317722 22.4390495,22.2866835 21.5071736,22.2876524 L12.5043042,22.2876524 C11.5724283,22.2866835 10.8172353,21.5317722 10.8162661,20.6002438 L10.8162661,17.7878962 L23.1952116,17.7878962 L23.1952116,20.6002438 Z" id="Shape" fill="#90A8B9" fill-rule="nonzero"></path>
        </g>
    </g>
</svg>