<?xml version="1.0" encoding="UTF-8"?>
<svg width="34px" height="34px" viewBox="0 0 34 34" version="1.1" xmlns="http://www.w3.org/2000/svg" xmlns:xlink="http://www.w3.org/1999/xlink">
    <title>bedrom_icon</title>
    <g id="Page-1" stroke="none" stroke-width="1" fill="none" fill-rule="evenodd">
        <g id="bedrom_icon" transform="translate(0.100430, 0.400000)">
            <rect id="Rectangle" fill="#474D56" x="0" y="0" width="33.3106169" height="33.3" rx="1.8"></rect>
            <g id="bed-regular" transform="translate(6.337159, 11.100000)" fill="#90A8B9" fill-rule="nonzero">
                <path d="M5.25,7.5 C6.76625,7.5 8,6.26625 8,4.75 C8,3.23375 6.76625,2 5.25,2 C3.73375,2 2.5,3.23375 2.5,4.75 C2.5,6.26625 3.73375,7.5 5.25,7.5 Z M5.25,3.5 C5.939375,3.5 6.5,4.060625 6.5,4.75 C6.5,5.439375 5.939375,6 5.25,6 C4.560625,6 4,5.439375 4,4.75 C4,4.060625 4.560625,3.5 5.25,3.5 Z M16.5,2 L9.5,2 C9.22375,2 9,2.22375 9,2.5 L9,8.5 L1.5,8.5 L1.5,0.5 C1.5,0.22375 1.27625,0 1,0 L0.5,0 C0.22375,0 0,0.22375 0,0.5 L0,11.5 C0,11.77625 0.22375,12 0.5,12 L1,12 C1.27625,12 1.5,11.77625 1.5,11.5 L1.5,10 L18.5,10 L18.5,11.5 C18.5,11.77625 18.72375,12 19,12 L19.5,12 C19.77625,12 20,11.77625 20,11.5 L20,5.5 C20,3.566875 18.433125,2 16.5,2 Z M18.5,8.5 L10.5,8.5 L10.5,3.5 L16.5,3.5 C17.6028125,3.5 18.5,4.3971875 18.5,5.5 L18.5,8.5 Z" id="Shape"></path>
            </g>
        </g>
    </g>
</svg>