<?xml version="1.0" encoding="UTF-8"?>
<svg width="34px" height="35px" viewBox="0 0 34 35" version="1.1" xmlns="http://www.w3.org/2000/svg" xmlns:xlink="http://www.w3.org/1999/xlink">
    <title>build_icon</title>
    <g id="Page-1" stroke="none" stroke-width="1" fill="none" fill-rule="evenodd">
        <g id="build_icon" transform="translate(0.034433, 0.900000)">
            <rect id="Rectangle" fill="#474D56" x="0" y="0" width="33.3106169" height="33.3" rx="1.8"></rect>
            <g id="chimney-regular" transform="translate(7.403156, 7.600000)" fill="#90A8B9" fill-rule="nonzero">
                <path d="M17.8125,0 L1.1875,0 C0.530664062,0 0,0.530664062 0,1.1875 L0,7.125 C0,7.78183594 0.530664062,8.3125 1.1875,8.3125 L1.1875,17.8125 C1.1875,18.4693359 1.71816406,19 2.375,19 L16.625,19 C17.2818359,19 17.8125,18.4693359 17.8125,17.8125 L17.8125,8.3125 C18.4693359,8.3125 19,7.78183594 19,7.125 L19,1.1875 C19,0.530664062 18.4693359,0 17.8125,0 Z M11.28125,17.21875 L2.96875,17.21875 L2.96875,14.25 L11.28125,14.25 L11.28125,17.21875 Z M2.96875,12.46875 L2.96875,8.3125 L5.9375,8.3125 L5.9375,12.46875 L2.96875,12.46875 Z M16.03125,17.21875 L13.0625,17.21875 L13.0625,14.25 L16.03125,14.25 L16.03125,17.21875 Z M16.03125,12.46875 L7.71875,12.46875 L7.71875,8.3125 L16.03125,8.3125 L16.03125,12.46875 Z M17.21875,6.53125 L1.78125,6.53125 L1.78125,1.78125 L17.21875,1.78125 L17.21875,6.53125 Z" id="Shape"></path>
            </g>
        </g>
    </g>
</svg>