<?xml version="1.0" encoding="UTF-8"?>
<svg width="35px" height="34px" viewBox="0 0 35 34" version="1.1" xmlns="http://www.w3.org/2000/svg" xmlns:xlink="http://www.w3.org/1999/xlink">
    <title>dinning_icon</title>
    <g id="Page-1" stroke="none" stroke-width="1" fill="none" fill-rule="evenodd">
        <g id="dinning_icon" transform="translate(0.928981, 0.100000)">
            <rect id="Rectangle" fill="#474D56" x="0" y="0" width="33.3106169" height="33.3" rx="1.8"></rect>
            <g id="fork-knife-regular" transform="translate(7.508608, 8.400000)" fill="#90A8B9" fill-rule="nonzero">
                <path d="M16.6533251,15.6200181 C16.8218099,15.7725729 16.8977933,15.9715573 16.8944897,16.1771745 C16.8911861,16.3827918 16.8085954,16.5519285 16.6632359,16.7276981 C16.4881438,16.87362 16.319659,16.9565302 16.1148342,16.9598466 C15.9100095,16.963163 15.711792,16.8868856 15.5598252,16.7177489 L10.2608108,11.4280797 L10.8158198,10.8709233 C11.3410961,11.2191461 11.9456595,11.4347125 12.5733483,11.4977243 L16.6533251,15.6200181 Z M5.23269361,10.8477085 L1.78734315,7.38869599 C0.925097033,6.52311377 0.340685779,5.41543383 0.110125794,4.2148945 C-0.120533301,3.01236533 0.0129926127,1.76838107 0.493313252,0.642792533 C0.561367926,0.483604998 0.667414287,0.343320982 0.801871823,0.234642325 C0.936659721,0.12589734 1.09556408,0.0519082999 1.26504004,0.0191322496 C1.43484636,-0.0136404843 1.60960812,-0.00420530641 1.77478937,0.0466352128 C1.93997062,0.0974757319 2.09028555,0.188113135 2.21251968,0.310720701 L7.57826733,5.69732843 C7.56835645,5.81671908 7.54523108,5.92947692 7.54523108,6.04886757 C7.54523108,6.83153962 7.7731812,7.59762963 8.20595607,8.25096181 L8.04077482,8.41346575 L1.69748455,2.04596433 C1.52503532,2.79381411 1.54584816,3.57482795 1.75794088,4.31107031 C1.97003361,5.05062906 2.36613824,5.72054328 2.90892382,6.26111762 L6.35592609,9.72344651 C6.42199859,9.78977465 6.50458922,9.83620435 6.59378709,9.85610279 L5.43751836,11.0168452 C5.36814223,10.9637827 5.29876611,10.9074038 5.23269361,10.8477085 L5.23269361,10.8477085 Z M18.9691662,4.99425015 C19.0088097,5.09042595 18.9988988,5.19323457 18.9988988,5.29604318 C18.9988988,5.40216821 19.0088097,5.50497682 18.9691662,5.60115263 C18.89979,5.69732843 18.8700574,5.78687142 18.767645,5.85983237 L15.0576742,9.61400508 C14.5125761,10.1578958 13.7725641,10.4663217 13.0028195,10.4663217 C12.2297713,10.4663217 11.4930629,10.1578958 10.9446612,9.61400508 L10.7596582,9.42496989 L3.46525426,16.7177489 C3.39257451,16.8271903 3.30337664,16.8868856 3.20757151,16.9333153 C3.11044494,16.9764286 3.00538967,16.9996435 2.89901294,16.9996435 C2.79263622,17.0029599 2.68692022,16.9830614 2.58814184,16.9432645 C2.48936345,16.9034676 2.39950485,16.8437723 2.32451256,16.767495 C2.24918991,16.6912176 2.18972467,16.6016746 2.1497508,16.5021824 C2.1101073,16.4026902 2.09028555,16.2965652 2.09213239,16.1904401 C2.0942499,16.0544675 2.11737528,15.9781901 2.16065277,15.8820143 C2.20426062,15.7825221 2.26669913,15.6962955 2.34466468,15.6233346 L9.6397293,8.30070792 L9.45142268,8.11167272 C8.90632456,7.56446556 8.60239106,6.8215904 8.60239106,6.04886757 C8.60239106,5.27614474 8.90632456,4.53326957 9.45142268,3.98606242 L13.1911261,0.23321627 C13.3397892,0.0926337777 13.5413104,0.0160977372 13.7461351,0.0196025443 C13.9509599,0.0233673013 14.1458737,0.106894328 14.2912332,0.252716743 C14.4365927,0.398704979 14.5191834,0.595367913 14.5257906,0.801648428 C14.5290942,1.0075973 14.4531109,1.207245 14.311055,1.35814152 L11.509581,4.17178121 L12.6295099,5.29935959 L15.3649113,2.52220038 C15.4673237,2.4482445 15.5565216,2.38987574 15.6523267,2.34974721 C15.7481318,2.30961869 15.8505442,2.28905696 15.9265276,2.28905696 C16.0586726,2.28905696 16.161085,2.30961869 16.2568901,2.34974721 C16.3559988,2.38987574 16.4418931,2.4482445 16.5145728,2.52220038 C16.5905562,2.59615625 16.6467178,2.68404104 16.6863613,2.78054848 C16.7260048,2.87738756 16.7193976,2.98085946 16.7193976,3.08532628 C16.7193976,3.1897931 16.7260048,3.293265 16.6863613,3.38910916 C16.6467178,3.48528497 16.5905562,3.57482795 16.5145728,3.64778891 L13.7494387,6.42362156 L14.8726712,7.54788353 L17.6741452,4.7355704 C17.7501286,4.66260945 17.8360228,4.60291412 17.9318279,4.56311724 C18.0276331,4.52332035 18.1300454,4.50342191 18.2357614,4.50342191 C18.3381738,4.50342191 18.4438898,4.52332035 18.5396949,4.56311724 C18.6355,4.60291412 18.7213943,4.66260945 18.767645,4.7355704 C18.8700574,4.80853135 18.89979,4.89807434 18.9691662,4.99425015 L18.9691662,4.99425015 Z M12.8640673,8.85786429 C13.1613935,8.88439555 13.4620234,8.80811819 13.7097952,8.63566502 L10.4226884,5.33584007 C10.2542035,5.58457059 10.1749165,5.88636363 10.2046492,6.18815666 C10.2310782,6.4899497 10.3599195,6.77184429 10.5416189,6.98741075 L12.0678936,8.48974311 C12.2826293,8.70199316 12.5634374,8.83133303 12.8640673,8.85786429 Z" id="Shape"></path>
            </g>
        </g>
    </g>
</svg>