<?xml version="1.0" encoding="UTF-8"?>
<svg width="34px" height="34px" viewBox="0 0 34 34" version="1.1" xmlns="http://www.w3.org/2000/svg" xmlns:xlink="http://www.w3.org/1999/xlink">
    <title>garage_icon</title>
    <g id="Page-1" stroke="none" stroke-width="1" fill="none" fill-rule="evenodd">
        <g id="garage_icon" transform="translate(0.083214, 0.000000)">
            <rect id="Rectangle" fill="#474D56" x="0" y="0" width="33.3106169" height="33.3" rx="1.8"></rect>
            <g id="car-regular" transform="translate(7.354376, 9.500000)" fill="#90A8B9" fill-rule="nonzero">
                <path d="M18.5542068,4.66703125 L16.6167237,4.66703125 L15.4529721,1.82765625 C15.0009793,0.723333333 13.9107043,0 12.6994527,0 L6.30030333,0 C5.08905167,0 3.99877675,0.723333333 3.54641285,1.82729167 L2.38266126,4.66666667 L0.445549242,4.66666667 C0.155724628,4.66666667 -0.0569123809,4.93427083 0.0135955278,5.21026042 L0.236252082,6.08526042 C0.285917563,6.27992943 0.463930787,6.41650586 0.668205796,6.41666667 L1.0879134,6.41666667 C0.780647356,6.93291667 0.593615851,7.52536458 0.593615851,8.16630208 L0.593615851,13.125 C0.593615851,13.6080729 0.992542176,14 1.48424207,14 L2.07799288,14 C2.56969277,14 2.96861909,13.6080729 2.96861909,13.125 L2.96861909,12.25 L16.0311369,12.25 L16.0311369,13.125 C16.0311369,13.6080729 16.4300632,14 16.9217631,14 L17.5155139,14 C18.0072138,14 18.4061402,13.6080729 18.4061402,13.125 L18.4061402,8.16666667 C18.4061402,7.52536458 18.2191087,6.93291667 17.9122137,6.41703125 L18.3319213,6.41703125 C18.5363942,6.41703125 18.7145195,6.2803125 18.763875,6.085625 L18.9865316,5.210625 C19.0566684,4.93427083 18.8440314,4.66703125 18.5542068,4.66703125 Z M5.19889557,2.48098958 C5.38073176,2.03692708 5.81305657,1.75 6.30030333,1.75 L12.6994527,1.75 C13.1866994,1.75 13.6190243,2.03692708 13.8008604,2.48098958 L14.6963109,4.66630208 L4.30344513,4.66630208 L5.19889557,2.48098958 Z M16.6248877,9.91666667 C16.6248877,10.2382292 16.3584421,10.5 16.0311369,10.5 L2.96861909,10.5 C2.64131396,10.5 2.37486828,10.2382292 2.37486828,9.91666667 L2.37486828,8.16666667 C2.37486828,7.20161458 3.17383422,6.41666667 4.15612071,6.41666667 L14.8436353,6.41666667 C15.8259218,6.41666667 16.6248877,7.20161458 16.6248877,8.16666667 L16.6248877,9.91666667 Z M4.74987152,7.29130208 C4.03737055,7.29130208 3.5623699,7.75651042 3.5623699,8.4546875 C3.5623699,9.15286458 4.03737055,9.61807292 4.74987152,9.61807292 C5.4623725,9.61807292 6.53112395,9.734375 6.53112395,9.03619792 C6.53112395,8.33838542 5.4623725,7.29130208 4.74987152,7.29130208 L4.74987152,7.29130208 Z M14.2498845,7.29130208 C13.5373835,7.29130208 12.4686321,8.33838542 12.4686321,9.03619792 C12.4686321,9.734375 13.5373835,9.61807292 14.2498845,9.61807292 C14.9623855,9.61807292 15.4373861,9.15286458 15.4373861,8.4546875 C15.4373861,7.756875 14.9623855,7.29130208 14.2498845,7.29130208 L14.2498845,7.29130208 Z" id="Shape"></path>
            </g>
        </g>
    </g>
</svg>