<?xml version="1.0" encoding="UTF-8"?>
<svg width="35px" height="34px" viewBox="0 0 35 34" version="1.1" xmlns="http://www.w3.org/2000/svg" xmlns:xlink="http://www.w3.org/1999/xlink">
    <title>garden_icon</title>
    <g id="Page-1" stroke="none" stroke-width="1" fill="none" fill-rule="evenodd">
        <g id="garden_icon" transform="translate(0.931851, 0.000000)">
            <rect id="Rectangle" fill="#474D56" x="0" y="0" width="33.3106169" height="33.3" rx="1.8"></rect>
            <g id="bench-tree-regular-(1)" transform="translate(6.505739, 7.500000)" fill="#90A8B9" fill-rule="nonzero">
                <path d="M11.25,11.6875 L10.25,11.6875 L10.25,10.571875 C10.678125,10.4523438 11,10.0539063 11,9.5625 L11,7.4375 C11,6.85080078 10.5521875,6.375 10,6.375 L2,6.375 C1.4478125,6.375 1,6.84980469 1,7.4375 L1,9.5625 C1,10.0549023 1.321875,10.4510156 1.75,10.5712109 L1.75,11.6875 L0.75,11.6875 C0.3359375,11.6875 0,12.0460938 0,12.484375 C0,12.9226562 0.3359375,13.28125 0.75,13.28125 L1,13.28125 L1,16.203125 C1,16.6447266 1.3359375,17 1.75,17 C2.1640625,17 2.5,16.6430664 2.5,16.203125 L2.5,13.28125 L9.5,13.28125 L9.5,16.203125 C9.5,16.6430664 9.8359375,17 10.25,17 C10.6640625,17 11,16.6447266 11,16.203125 L11,13.28125 L11.25,13.28125 C11.6640625,13.28125 12,12.9243164 12,12.484375 C12,12.0444336 11.665625,11.6875 11.25,11.6875 Z M8.75,11.6875 L3.25,11.6875 L3.25,10.625 L8.75,10.625 L8.75,11.6875 Z M9.5,9.03125 L2.5,9.03125 L2.5,7.96875 L9.5,7.96875 L9.5,9.03125 Z M18.953125,3.68886719 C18.978125,3.52617188 19,3.36015625 19,3.1875 C19,1.42707031 17.656875,0 16,0 C14.343125,0 13,1.42707031 13,3.1875 C13,3.35929297 13.0230094,3.52451172 13.0475938,3.68919922 C12.415625,4.1703125 12,4.95390625 12,5.84375 C12,7.31132812 13.11875,8.5 14.5,8.5 L15.25,8.5 L15.25,16.203125 C15.25,16.6430664 15.5859375,17 16,17 C16.4140625,17 16.75,16.6430664 16.75,16.203125 L16.75,8.5 L17.5,8.5 C18.88125,8.5 20,7.31132812 20,5.84375 C20,4.95390625 19.584375,4.1703125 18.953125,3.68886719 Z M17.5,6.90625 L14.5,6.90625 C13.94875,6.90625 13.5,6.42945313 13.5,5.84375 C13.5,5.50175781 13.653875,5.18832031 13.9221875,4.98378906 C14.383125,4.63216797 14.618125,4.03417969 14.5290625,3.43884766 C14.51875,3.36015625 14.5,3.24494141 14.5,3.1875 C14.5,2.30861328 15.1728125,1.59375 16,1.59375 C16.8271875,1.59375 17.5,2.30861328 17.5,3.1875 C17.5,3.2449082 17.4825438,3.36161719 17.4710094,3.43891406 C17.3818844,4.03424609 17.6167594,4.63223437 18.0778844,4.98385547 C18.346875,5.18964844 18.5,5.50175781 18.5,5.84375 C18.5,6.428125 18.05,6.90625 17.5,6.90625 Z" id="Shape"></path>
            </g>
        </g>
    </g>
</svg>