<?xml version="1.0" encoding="UTF-8"?>
<svg width="35px" height="34px" viewBox="0 0 35 34" version="1.1" xmlns="http://www.w3.org/2000/svg" xmlns:xlink="http://www.w3.org/1999/xlink">
    <title>kitchen_icon</title>
    <g id="Page-1" stroke="none" stroke-width="1" fill="none" fill-rule="evenodd">
        <g id="kitchen_icon" transform="translate(0.863702, 0.100000)">
            <rect id="Rectangle" fill="#474D56" x="0" y="0" width="33.3106169" height="33.3" rx="1.8"></rect>
            <g id="kitchen-set-regular" transform="translate(7.573888, 7.400000)" fill="#90A8B9" fill-rule="nonzero">
                <path d="M7.26470588,5.0625 C7.26470588,6.30351563 6.26231618,7.3125 5.02941176,7.3125 C3.79650735,7.3125 2.79411765,6.30351563 2.79411765,5.0625 C2.79411765,3.82148438 3.79650735,2.8125 5.02941176,2.8125 C6.26231618,2.8125 7.26470588,3.82148438 7.26470588,5.0625 Z M9.98897059,5.90625 C9.59080882,8.30039063 7.52316176,10.125 5.02941176,10.125 C2.25170956,10.125 0,7.85742188 0,5.0625 C0,2.26652344 2.25170956,0 5.02941176,0 C7.52316176,0 9.59080882,1.82460938 9.98897059,4.21875 L12.3185662,4.21875 C12.4512868,3.42070313 13.1393382,2.8125 13.9705882,2.8125 L17.3235294,2.8125 C18.2490809,2.8125 19,3.56835938 19,4.5 L19,5.625 C19,6.55664063 18.2490809,7.3125 17.3235294,7.3125 L13.9705882,7.3125 C13.1393382,7.3125 12.4512868,6.70429688 12.3185662,5.90625 L9.98897059,5.90625 Z M5.02941176,1.6875 C3.17761029,1.6875 1.67647059,3.19851562 1.67647059,5.0625 C1.67647059,6.92578125 3.17761029,8.4375 5.02941176,8.4375 C6.88051471,8.4375 8.38235294,6.92578125 8.38235294,5.0625 C8.38235294,3.19851562 6.88051471,1.6875 5.02941176,1.6875 Z M13.9705882,5.625 L17.3235294,5.625 L17.3235294,4.5 L13.9705882,4.5 L13.9705882,5.625 Z M13.1323529,9.28125 C13.1323529,8.81367188 13.5060662,8.4375 13.9705882,8.4375 C14.4351103,8.4375 14.8088235,8.81367188 14.8088235,9.28125 L14.8088235,9.5625 L18.1617647,9.5625 C18.6262868,9.5625 19,9.93867188 19,10.40625 C19,10.8738281 18.6262868,11.25 18.1617647,11.25 L17.8823529,11.25 L17.8823529,16.3125 C17.8823529,17.2441406 17.1314338,18 16.2058824,18 L11.7352941,18 C10.8097426,18 10.0588235,17.2441406 10.0588235,16.3125 L10.0588235,11.25 L9.77941176,11.25 C9.31488971,11.25 8.94117647,10.8738281 8.94117647,10.40625 C8.94117647,9.93867188 9.31488971,9.5625 9.77941176,9.5625 L13.1323529,9.5625 L13.1323529,9.28125 Z M11.7352941,11.25 L11.7352941,16.3125 L16.2058824,16.3125 L16.2058824,11.25 L11.7352941,11.25 Z M1.11764706,11.8125 C1.11764706,11.503125 1.36772059,11.25 1.67647059,11.25 L6.14705882,11.25 C7.07261029,11.25 7.82352941,12.0058594 7.82352941,12.9375 C7.82352941,13.8691406 7.07261029,14.625 6.14705882,14.625 L5.58823529,14.625 C5.58823529,15.2472656 5.08878676,15.75 4.47058824,15.75 L2.23529412,15.75 C1.61814338,15.75 1.11764706,15.2472656 1.11764706,14.625 L1.11764706,11.8125 Z M5.58823529,13.5 L6.14705882,13.5 C6.45441176,13.5 6.70588235,13.246875 6.70588235,12.9375 C6.70588235,12.628125 6.45441176,12.375 6.14705882,12.375 L5.58823529,12.375 L5.58823529,13.5 Z M0,17.15625 C0,16.6886719 0.375459559,16.3125 0.838235294,16.3125 L6.98529412,16.3125 C7.44981618,16.3125 7.82352941,16.6886719 7.82352941,17.15625 C7.82352941,17.6238281 7.44981618,18 6.98529412,18 L0.838235294,18 C0.375459559,18 0,17.6238281 0,17.15625 Z" id="Shape"></path>
            </g>
        </g>
    </g>
</svg>