<?xml version="1.0" encoding="UTF-8"?>
<svg width="34px" height="35px" viewBox="0 0 34 35" version="1.1" xmlns="http://www.w3.org/2000/svg" xmlns:xlink="http://www.w3.org/1999/xlink">
    <title>land_icon</title>
    <g id="Page-1" stroke="none" stroke-width="1" fill="none" fill-rule="evenodd">
        <g id="land_icon" transform="translate(0.000000, 0.900000)">
            <rect id="Rectangle" fill="#474D56" x="0" y="0" width="33.3106169" height="33.3" rx="1.8"></rect>
            <g id="draw-square-regular" transform="translate(7.437590, 7.600000)" fill="#90A8B9" fill-rule="nonzero">
                <path d="M5.22924107,17.3035714 C4.83058036,18.3002232 3.8534375,19 2.71428571,19 C1.21506696,19 0,17.7828125 0,16.2857143 C0,15.1448661 0.701897321,14.1694196 1.69642857,13.7707589 L1.69642857,5.22924107 C0.701897321,4.83058036 0,3.85513393 0,2.71428571 C0,1.21506696 1.21506696,0 2.71428571,0 C3.8534375,0 4.83058036,0.701897321 5.22924107,1.69642857 L13.7707589,1.69642857 C14.1694196,0.701897321 15.1448661,0 16.2857143,0 C17.7828125,0 19,1.21506696 19,2.71428571 C19,3.85513393 18.3002232,4.83058036 17.3035714,5.22924107 L17.3035714,13.7707589 C18.3002232,14.1694196 19,15.1448661 19,16.2857143 C19,17.7828125 17.7828125,19 16.2857143,19 C15.1448661,19 14.1694196,18.3002232 13.7707589,17.3035714 L5.22924107,17.3035714 Z M2.71428571,3.39285714 C3.08919643,3.39285714 3.39285714,3.0875 3.39285714,2.71428571 C3.39285714,2.339375 3.08919643,2.03571429 2.71428571,2.03571429 C2.339375,2.03571429 2.03571429,2.339375 2.03571429,2.71428571 C2.03571429,3.0875 2.339375,3.39285714 2.71428571,3.39285714 Z M3.73214286,13.7707589 C4.41071429,14.0421875 4.9578125,14.5511161 5.22924107,15.2678571 L13.7707589,15.2678571 C14.0421875,14.5511161 14.5511161,14.0421875 15.2678571,13.7707589 L15.2678571,5.22924107 C14.5511161,4.9578125 14.0421875,4.41071429 13.7707589,3.73214286 L5.22924107,3.73214286 C4.9578125,4.41071429 4.41071429,4.9578125 3.73214286,5.22924107 L3.73214286,13.7707589 Z M2.71428571,15.6071429 C2.339375,15.6071429 2.03571429,15.9125 2.03571429,16.2857143 C2.03571429,16.6589286 2.339375,16.9642857 2.71428571,16.9642857 C3.08919643,16.9642857 3.39285714,16.6589286 3.39285714,16.2857143 C3.39285714,15.9125 3.08919643,15.6071429 2.71428571,15.6071429 Z M16.2857143,15.6071429 C15.9125,15.6071429 15.6071429,15.9125 15.6071429,16.2857143 C15.6071429,16.6589286 15.9125,16.9642857 16.2857143,16.9642857 C16.6589286,16.9642857 16.9642857,16.6589286 16.9642857,16.2857143 C16.9642857,15.9125 16.6589286,15.6071429 16.2857143,15.6071429 Z M16.2857143,2.03571429 C15.9125,2.03571429 15.6071429,2.339375 15.6071429,2.71428571 C15.6071429,3.0875 15.9125,3.39285714 16.2857143,3.39285714 C16.6589286,3.39285714 16.9642857,3.0875 16.9642857,2.71428571 C16.9642857,2.339375 16.6589286,2.03571429 16.2857143,2.03571429 Z" id="Shape"></path>
            </g>
        </g>
    </g>
</svg>