<?xml version="1.0" encoding="UTF-8"?>
<svg width="35px" height="34px" viewBox="0 0 35 34" version="1.1" xmlns="http://www.w3.org/2000/svg" xmlns:xlink="http://www.w3.org/1999/xlink">
    <title>living_icon</title>
    <g id="Page-1" stroke="none" stroke-width="1" fill="none" fill-rule="evenodd">
        <g id="living_icon" transform="translate(0.900287, 0.100000)">
            <rect id="Rectangle" fill="#474D56" x="0" y="0" width="33.3106169" height="33.3" rx="1.8"></rect>
            <g id="couch-regular" transform="translate(7.537303, 10.400000)" fill="#90A8B9" fill-rule="nonzero">
                <path d="M17.1,5.57142857 C16.0505469,5.57142857 15.2,6.40279018 15.2,7.42857143 L3.8,7.42857143 C3.8,6.40279018 2.94945312,5.57142857 1.9,5.57142857 C0.850546875,5.57142857 0,6.40279018 0,7.42857143 L0,12.0714286 C0,12.5841741 0.425421875,13 0.95,13 L2.85,13 C3.37457813,13 3.8,12.5841741 3.8,12.0714286 L15.2,12.0714286 C15.2,12.5841741 15.6254219,13 16.15,13 L18.05,13 C18.5745781,13 19,12.5841741 19,12.0714286 L19,7.42857143 C19,6.40424107 18.1479687,5.57142857 17.1,5.57142857 Z M2.375,11.6071429 L1.425,11.6071429 L1.425,7.42857143 C1.425,7.17257589 1.63809688,6.96428571 1.9,6.96428571 C2.16190313,6.96428571 2.375,7.17321429 2.375,7.42857143 L2.375,11.6071429 Z M15.2,10.6785714 L3.8,10.6785714 L3.8,8.82142857 L15.2,8.82142857 L15.2,10.6785714 Z M17.575,11.6071429 L16.625,11.6071429 L16.625,7.42857143 C16.625,7.17257589 16.8380969,6.96428571 17.1,6.96428571 C17.3619031,6.96428571 17.575,7.17257589 17.575,7.42857143 L17.575,11.6071429 Z M2.6125,4.64285714 C3.00734375,4.64285714 3.325,4.33236607 3.325,3.94642857 L3.325,3.48214286 C3.325,2.33042411 4.28390625,1.39285714 5.4625,1.39285714 L13.5375,1.39285714 C14.7160937,1.39285714 15.675,2.33042411 15.675,3.48214286 L15.675,3.94642857 C15.675,4.33236607 15.995625,4.64285714 16.3875,4.64285714 C16.779375,4.64285714 17.1,4.33236607 17.1,3.94642857 L17.1,3.48214286 C17.1,1.56232143 15.5028125,0 13.5375,0 L5.4625,0 C3.4971875,0 1.9,1.56232143 1.9,3.48214286 L1.9,3.94642857 C1.9,4.33236607 2.21914062,4.64285714 2.6125,4.64285714 Z" id="Shape"></path>
            </g>
        </g>
    </g>
</svg>