<?xml version="1.0" encoding="UTF-8"?>
<svg width="122px" height="120px" viewBox="0 0 122 120" version="1.1" xmlns="http://www.w3.org/2000/svg" xmlns:xlink="http://www.w3.org/1999/xlink">
    <title>Group 13</title>
    <defs>
        <path d="M60.7594937,120 C94.3160354,120 121.518987,93.137085 121.518987,60 C121.518987,26.862915 94.3160354,0 60.7594937,0 C27.2029519,0 0,26.862915 0,60 C0,93.137085 27.2029519,120 60.7594937,120 Z" id="path-1"></path>
        <mask id="mask-2" maskContentUnits="userSpaceOnUse" maskUnits="objectBoundingBox" x="0" y="0" width="121.518987" height="120" fill="white">
            <use xlink:href="#path-1"></use>
        </mask>
    </defs>
    <g id="Page-1" stroke="none" stroke-width="1" fill="none" fill-rule="evenodd">
        <g id="alcala_2" transform="translate(-731.000000, -273.000000)">
            <g id="Group-13" transform="translate(731.000000, 273.000000)">
                <use id="Oval" stroke="#FFFFFF" mask="url(#mask-2)" stroke-width="2" stroke-dasharray="10" xlink:href="#path-1"></use>
                <ellipse id="Oval" fill-opacity="0.18" fill="#FFFFFF" cx="60.5696203" cy="60" rx="45.5696203" ry="45"></ellipse>
                <g id="play-solid-(3)" transform="translate(49.000000, 42.000000)" fill="#FFFFFF" fill-rule="nonzero">
                    <path d="M28.203125,14.7078768 C29.3203125,15.415137 30,16.6608795 30,18.0030665 C30,19.3452535 29.3203125,20.5909959 28.203125,21.2259227 L5.70546875,35.371127 C4.54765625,36.1667948 3.0984375,36.1989429 1.915625,35.5157939 C0.732578125,34.8326448 0,33.5467171 0,32.1482708 L0,3.85786215 C0,2.46263063 0.732578125,1.17589926 1.915625,0.492750185 C3.0984375,-0.189595182 4.54765625,-0.161465515 5.70546875,0.565887321 L28.203125,14.7078768 Z" id="Path"></path>
                </g>
            </g>
        </g>
    </g>
</svg>