<?xml version="1.0" encoding="UTF-8"?>
<svg width="48px" height="48px" viewBox="0 0 48 48" version="1.1" xmlns="http://www.w3.org/2000/svg" xmlns:xlink="http://www.w3.org/1999/xlink">
    <title>whatsapp-brands (8)</title>
    <g id="Page-1" stroke="none" stroke-width="1" fill="none" fill-rule="evenodd">
        <g id="alcala_2" transform="translate(-1180.000000, -425.000000)" fill="#FFFFFF" fill-rule="nonzero">
            <g id="Group-10" transform="translate(1159.000000, 404.000000)">
                <g id="whatsapp-brands-(8)" transform="translate(21.000000, 21.000000)">
                    <path d="M40.8107143,6.975 C36.3214286,2.475 30.3428571,0 23.9892857,0 C10.875,0 0.203571429,10.6714286 0.203571429,23.7857143 C0.203571429,27.975 1.29642857,32.0678571 3.375,35.6785714 L0,48 L12.6107143,44.6892857 C16.0821429,46.5857143 19.9928571,47.5821429 23.9785714,47.5821429 L23.9892857,47.5821429 C37.0928571,47.5821429 48,36.9107143 48,23.7964286 C48,17.4428571 45.3,11.475 40.8107143,6.975 Z M23.9892857,43.575 C20.4321429,43.575 16.95,42.6214286 13.9178571,40.8214286 L13.2,40.3928571 L5.72142857,42.3535714 L7.71428571,35.0571429 L7.24285714,34.3071429 C5.26071429,31.1571429 4.22142857,27.525 4.22142857,23.7857143 C4.22142857,12.8892857 13.0928571,4.01785714 24,4.01785714 C29.2821429,4.01785714 34.2428571,6.075 37.9714286,9.81428571 C41.7,13.5535714 43.9928571,18.5142857 43.9821802,23.7964286 C43.9821802,34.7035714 34.8857143,43.575 23.9892857,43.575 Z M34.8321429,28.7678571 C34.2428571,28.4678571 31.3178571,27.0321429 30.7714286,26.8392857 C30.225,26.6357143 29.8285714,26.5392857 29.4321429,27.1392857 C29.0357143,27.7392857 27.9,29.0678571 27.5464286,29.475 C27.2035714,29.8714286 26.85,29.925 26.2607143,29.625 C22.7678571,27.8785714 20.475,26.5071429 18.1714286,22.5535714 C17.5607143,21.5035714 18.7821429,21.5785714 19.9178571,19.3071429 C20.1107143,18.9107143 20.0142857,18.5678571 19.8642857,18.2678571 C19.7142857,17.9678571 18.525,15.0428571 18.0321429,13.8535714 C17.55,12.6964286 17.0571429,12.8571429 16.6928571,12.8357143 C16.35,12.8142857 15.9535714,12.8142857 15.5571429,12.8142857 C15.1607143,12.8142857 14.5178571,12.9642857 13.9714286,13.5535714 C13.425,14.1535714 11.8928571,15.5892857 11.8928571,18.5142857 C11.8928571,21.4392857 14.025,24.2678571 14.3142857,24.6642857 C14.6142857,25.0607143 18.5035714,31.0607143 24.4714286,33.6428571 C28.2428571,35.2714286 29.7214286,35.4107143 31.6071429,35.1321429 C32.7535714,34.9607143 35.1214286,33.6964286 35.6142857,32.3035714 C36.1071429,30.9107143 36.1071429,29.7214286 35.9571429,29.475 C35.8178571,29.2071429 35.4214286,29.0571429 34.8321429,28.7678571 Z" id="Shape"></path>
                </g>
            </g>
        </g>
    </g>
</svg>