<?xml version="1.0" encoding="UTF-8"?>
<svg width="62px" height="62px" viewBox="0 0 62 62" version="1.1" xmlns="http://www.w3.org/2000/svg" xmlns:xlink="http://www.w3.org/1999/xlink">
    <title>icon_house</title>
    <g id="icon_house" stroke="none" stroke-width="1" fill="none" fill-rule="evenodd">
        <g id="house-chimney-regular" transform="translate(2.000000, 6.000000)" fill="#FFFFFF" fill-rule="nonzero">
            <path d="M27.4394179,0.567773437 C28.3356032,-0.189257813 29.6647768,-0.189257813 30.5609621,0.567773437 L46.7225057,14.1345703 L46.7225057,5.578125 C46.7225057,4.25830078 47.7999419,3.09785156 49.1391851,3.09785156 C50.4784283,3.09785156 51.5558645,4.25830078 51.5558645,5.578125 L51.5558645,18.1886719 L57.1444356,22.8802734 C58.1614549,23.7369141 58.2923584,25.2410156 57.4263816,26.2470703 C56.5604048,27.253125 55.0399106,27.3826172 54.0228914,26.5259766 L51.5558645,24.4541016 L51.5558645,43.03125 C51.5558645,47.4339844 47.9509844,51 43.5002665,51 L14.5001135,51 C10.0514095,51 6.44451548,47.4339844 6.44451548,43.03125 L6.44451548,24.4541016 L3.98050943,26.5259766 C2.96248323,27.3826172 1.4379613,27.253125 0.573998415,26.2470703 C-0.289561694,25.2410156 -0.164498535,23.7369141 0.853225582,22.8802734 L27.4394179,0.567773437 Z M11.2778743,20.4 L11.2778743,43.03125 C11.2778743,44.7943359 12.7178125,46.21875 14.5001135,46.21875 L19.3334723,46.21875 L19.3334723,31.078125 C19.3334723,28.8767578 21.1359124,27.09375 23.3612714,27.09375 L34.6391086,27.09375 C36.8644676,27.09375 38.6669076,28.8767578 38.6669076,31.078125 L38.6669076,46.21875 L43.5002665,46.21875 C45.2825675,46.21875 46.7225057,44.7943359 46.7225057,43.03125 L46.7225057,20.4 L29.00019,5.52533203 L11.2778743,20.4 Z M24.1668312,31.875 L24.1668312,46.21875 L33.8335488,46.21875 L33.8335488,31.875 L24.1668312,31.875 Z" id="Shape"></path>
        </g>
    </g>
</svg>