<?xml version="1.0" encoding="UTF-8"?>
<svg width="62px" height="62px" viewBox="0 0 62 62" version="1.1" xmlns="http://www.w3.org/2000/svg" xmlns:xlink="http://www.w3.org/1999/xlink">
    <title>icon_garden</title>
    <g id="icon_garden" stroke="none" stroke-width="1" fill="none" fill-rule="evenodd">
        <g id="bench-tree-regular" transform="translate(2.000000, 8.000000)" fill="#FFFFFF" fill-rule="nonzero">
            <path d="M32.625,31.625 L29.725,31.625 L29.725,28.60625 C30.9665625,28.2828125 31.9,27.2046875 31.9,25.875 L31.9,20.125 C31.9,18.5374609 30.6013438,17.25 29,17.25 L5.8,17.25 C4.19865625,17.25 2.9,18.5347656 2.9,20.125 L2.9,25.875 C2.9,27.2073828 3.8334375,28.2792187 5.075,28.6044531 L5.075,31.625 L2.175,31.625 C0.97421875,31.625 0,32.5953125 0,33.78125 C0,34.9671875 0.97421875,35.9375 2.175,35.9375 L2.9,35.9375 L2.9,43.84375 C2.9,45.0386719 3.87421875,46 5.075,46 C6.27578125,46 7.25,45.0341797 7.25,43.84375 L7.25,35.9375 L27.55,35.9375 L27.55,43.84375 C27.55,45.0341797 28.5242188,46 29.725,46 C30.9257813,46 31.9,45.0386719 31.9,43.84375 L31.9,35.9375 L32.625,35.9375 C33.8257813,35.9375 34.8,34.9716797 34.8,33.78125 C34.8,32.5908203 33.8303125,31.625 32.625,31.625 Z M25.375,31.625 L9.425,31.625 L9.425,28.75 L25.375,28.75 L25.375,31.625 Z M27.55,24.4375 L7.25,24.4375 L7.25,21.5625 L27.55,21.5625 L27.55,24.4375 Z M54.9640625,9.98164062 C55.0365625,9.54140625 55.1,9.0921875 55.1,8.625 C55.1,3.86148437 51.2049375,0 46.4,0 C41.5950625,0 37.7,3.86148437 37.7,8.625 C37.7,9.08985156 37.7667272,9.53691406 37.8380219,9.98253906 C36.0053125,11.284375 34.8,13.4046875 34.8,15.8125 C34.8,19.7835937 38.044375,23 42.05,23 L44.225,23 L44.225,43.84375 C44.225,45.0341797 45.1992188,46 46.4,46 C47.6007813,46 48.575,45.0341797 48.575,43.84375 L48.575,23 L50.75,23 C54.755625,23 58,19.7835937 58,15.8125 C58,13.4046875 56.7946875,11.284375 54.9640625,9.98164062 Z M50.75,18.6875 L42.05,18.6875 C40.451375,18.6875 39.15,17.3973437 39.15,15.8125 C39.15,14.8871094 39.5962375,14.0389844 40.3743437,13.4855469 C41.7110625,12.5341016 42.3925625,10.9160156 42.1342812,9.30511719 C42.104375,9.0921875 42.05,8.78042969 42.05,8.625 C42.05,6.24683594 44.0011562,4.3125 46.4,4.3125 C48.7988437,4.3125 50.75,6.24683594 50.75,8.625 C50.75,8.78033984 50.6993769,9.09614062 50.6659272,9.30529687 C50.4074647,10.9161953 51.0886022,12.5342812 52.4258647,13.4857266 C53.2059375,14.0425781 53.65,14.8871094 53.65,15.8125 C53.65,17.39375 52.345,18.6875 50.75,18.6875 Z" id="Shape"></path>
        </g>
    </g>
</svg>