<?xml version="1.0" encoding="UTF-8"?>
<svg width="62px" height="62px" viewBox="0 0 62 62" version="1.1" xmlns="http://www.w3.org/2000/svg" xmlns:xlink="http://www.w3.org/1999/xlink">
    <title>icon_sports</title>
    <g id="icon_sports" stroke="none" stroke-width="1" fill="none" fill-rule="evenodd">
        <g id="tennis-ball-regular" transform="translate(6.000000, 5.000000)" fill="#FFFFFF" fill-rule="nonzero">
            <path d="M25.5,-1.0735304e-15 C11.4152344,-1.0735304e-15 0,11.4152344 0,25.5 C0,39.5847656 11.4152344,51 25.5,51 C39.5847656,51 51,39.5847656 51,25.5 C51,11.4152344 39.6744141,-1.0735304e-15 25.5,-1.0735304e-15 Z M21.5056641,5.18995723 C21.3861328,10.31984 18.9855469,15.3301916 14.4732422,18.4878088 C11.6642578,20.4521057 8.45982422,21.4252893 5.26933594,21.4920275 C6.87902344,13.3081213 13.3277344,6.83151973 21.5056641,5.18995723 Z M4.91074219,26.2872229 C18.5273438,26.2822424 26.3167969,14.8620275 26.3466797,4.82140254 C37.1742187,5.21286738 45.8701172,13.9266955 46.1789062,24.7532385 C46.1773424,24.7532385 46.1789062,24.7532385 46.1789062,24.7532385 C46.1789062,24.7532385 46.1786074,24.7532385 46.1789062,24.7532385 C46.1800318,24.7532385 46.1789062,24.7532385 46.1789062,24.7532385 C46.1789062,24.7532385 46.1804701,24.7532385 46.1789062,24.7532385 C32.5224609,24.7532385 24.7828125,36.1883947 24.7628906,46.189176 C14.025,45.7907385 5.32013672,37.09484 4.91074219,26.2872229 Z M29.6736328,45.8106604 C29.7930645,40.6817736 32.19375,35.670426 36.709043,32.5128088 C39.5150391,30.5505041 42.6328125,29.5942541 45.9099609,29.5245275 C44.2962891,37.7024572 37.8515625,44.1671057 29.6736328,45.8106604 Z" id="Shape"></path>
        </g>
    </g>
</svg>