<?xml version="1.0" encoding="UTF-8"?>
<svg width="62px" height="62px" viewBox="0 0 62 62" version="1.1" xmlns="http://www.w3.org/2000/svg" xmlns:xlink="http://www.w3.org/1999/xlink">
    <title>icon_dog</title>
    <g id="icon_dog" stroke="none" stroke-width="1" fill="none" fill-rule="evenodd">
        <g id="paw-regular" transform="translate(6.000000, 8.000000)" fill="#FFFFFF" fill-rule="nonzero">
            <path d="M7.46008469,25.59375 C10.3611475,24.890625 11.8684649,21.500558 10.8343635,18.0231027 C9.92578886,14.9665179 7.35946403,12.7667411 4.78218052,12.7667411 C4.42104203,12.7667411 4.06089978,12.8054029 3.70025942,12.8933036 C0.79919657,13.5964286 -0.708120767,16.9864955 0.325980618,20.4639509 C1.23495374,23.5155134 3.80088007,25.6248884 6.37915983,25.6248884 C6.73880395,25.7142857 7.09844807,25.6741071 7.46008469,25.59375 Z M31.7295874,15.9308036 C32.0882353,16.0212054 32.4468832,16.0714286 32.8055311,16.0714286 C35.5701085,16.0714286 38.400438,13.3714286 39.4464943,9.51729911 C40.6290361,5.15993304 39.0853558,0.954241071 36.0094521,0.138616071 C35.6547892,0.0502232143 35.2961414,0 34.9374935,0 C32.1729161,0 29.3425866,2.68694196 28.2965302,6.55412946 C27.1070148,10.9084821 28.6511931,15.1171875 31.7295874,15.9308036 Z M47.3108453,12.9877232 C46.9497068,12.8998326 46.5895646,12.8611607 46.2289242,12.8611607 C43.6516407,12.8611607 41.0853159,14.9715402 40.1767412,18.0220982 C39.1436361,21.500558 40.6499572,24.8896205 43.55102,25.5927455 C43.9121585,25.6806362 44.2721015,25.7192076 44.6329411,25.7192076 C47.2102247,25.7192076 49.7765495,23.6088281 50.6861204,20.5582701 C51.7142443,17.0758929 50.1202537,13.6908482 47.3108453,12.9877232 Z M18.2005924,16.0714286 C18.5617309,16.0714286 18.9185856,16.0211451 19.2795248,15.9332143 C22.3549304,15.1171875 23.8991087,10.9084821 22.7135782,6.55412946 C21.6675219,2.7 18.8381887,0 16.06863,0 C15.7099822,0 15.3513343,0.0502232143 14.9926864,0.138616071 C11.9172808,0.954743304 10.3731025,5.07053571 11.5556442,9.51729911 C12.6017005,13.3694196 15.4310338,16.0714286 18.2005924,16.0714286 Z M25.5030618,19.2857143 C17.5958723,19.2857143 6.46483682,31.6104911 6.46483682,39.3950893 C6.37716734,42.9006696 9.04112409,45 13.5282076,45 C18.3898788,45 21.6077473,42.4787946 25.5030618,42.4787946 C29.438226,42.4787946 32.6660569,45 37.477916,45 C41.8713525,45 44.6249712,42.903683 44.6249712,39.4001116 C44.5412867,31.6205357 33.41324,19.2857143 25.5030618,19.2857143 Z M39.8190896,39.6863839 C39.7393901,39.7868304 39.0619441,40.1785714 37.477916,40.1785714 C35.7095827,40.1785714 34.1654043,39.6637835 32.36021,39.0616071 C30.3806729,38.4087054 28.1391237,37.6553571 25.4990768,37.6553571 C22.883936,37.6553571 20.6553379,38.4087054 18.6877558,39.0616071 C16.8855502,39.6662946 15.321447,40.1785714 13.5282076,40.1785714 C11.9471682,40.1785714 11.2747034,39.7893415 11.1999851,39.7140067 C11.187532,39.6888951 11.1626235,39.5884487 11.1626235,39.4001116 C11.1571466,33.9609375 20.4122544,24.1071429 25.5030618,24.1071429 C30.5938692,24.1071429 39.759315,33.9639509 39.759315,39.3950893 C39.759315,39.5859375 39.8190896,39.6863839 39.8190896,39.6863839 Z" id="Shape"></path>
        </g>
    </g>
</svg>